# Blender v2.67 (sub 0) OBJ File: 'table_scene6.blend'
# www.blender.org
mtllib bumper.mtl
o Sphere
v -0.280131 0.396421 0.000989
v -0.517295 0.327939 0.000989
v -0.731409 0.104551 0.000989
v -0.198193 0.396421 -0.196827
v -0.365893 0.327939 -0.364527
v -0.477947 0.225448 -0.476581
v -0.517295 0.104551 -0.515929
v -0.000377 0.396421 -0.278765
v -0.000377 0.327939 -0.515929
v -0.000377 0.225448 -0.674397
v -0.000377 0.104551 -0.730043
v -0.000377 0.420469 0.000989
v 0.197439 0.396421 -0.196827
v 0.365139 0.327939 -0.364527
v 0.477193 0.225448 -0.476581
v 0.516541 0.104551 -0.515929
v 0.279377 0.396421 0.000989
v 0.516541 0.327939 0.000989
v 0.675009 0.225448 0.000989
v 0.730655 0.104551 0.000989
v 0.197439 0.396421 0.198805
v 0.365139 0.327939 0.366505
v 0.477193 0.225448 0.478559
v 0.516541 0.104551 0.517907
v -0.000377 0.396421 0.280743
v -0.000377 0.327939 0.517907
v -0.000377 0.225448 0.676375
v -0.000377 0.104551 0.732022
v -0.198193 0.396421 0.198805
v -0.365893 0.327939 0.366505
v -0.477947 0.225448 0.478559
v -0.517295 0.104551 0.517907
v -0.675763 0.225448 0.000989
vt 0.577251 0.286520
vt 0.539968 0.388382
vt 0.416790 0.288992
vt 0.386301 0.204411
vt 0.229530 0.381001
vt 0.455232 0.390321
vt 0.304900 0.416848
vt 0.362689 0.135386
vt 0.168920 0.350751
vt 0.307124 0.595189
vt 0.396548 0.458284
vt 0.398292 0.552463
vt 0.231023 0.629076
vt 0.422159 0.719549
vt 0.459442 0.617690
vt 0.168920 0.655319
vt 0.389906 0.803317
vt 0.582619 0.717075
vt 0.544178 0.615749
vt 0.362688 0.870683
vt 0.613108 0.801658
vt 0.694510 0.589222
vt 0.602862 0.547784
vt 0.636720 0.870683
vt 0.769881 0.625070
vt 0.768388 0.376994
vt 0.692287 0.410881
vt 0.830491 0.655320
vt 0.830491 0.350751
vt 0.499705 0.503035
vt 0.609504 0.202749
vt 0.636721 0.135384
vt 0.601118 0.453605
vn -0.443831 0.896084 0.000000
vn -0.205725 0.978607 0.000000
vn -0.313852 0.896084 -0.313852
vn -0.553209 0.622791 -0.553209
vn 0.000000 0.622791 -0.782373
vn -0.145451 0.978607 -0.145451
vn 0.000000 0.896084 -0.443831
vn -0.642323 0.418104 -0.642323
vn 0.000000 0.418104 -0.908383
vn 0.313852 0.896084 -0.313852
vn 0.000000 0.978607 -0.205725
vn 0.145451 0.978607 -0.145451
vn 0.553209 0.622791 -0.553209
vn 0.443831 0.896084 0.000000
vn 0.205725 0.978607 0.000000
vn 0.642323 0.418104 -0.642323
vn 0.782373 0.622791 0.000000
vn 0.313852 0.896084 0.313852
vn 0.145451 0.978607 0.145451
vn 0.908383 0.418104 0.000000
vn 0.553209 0.622791 0.553209
vn 0.000000 0.896084 0.443831
vn 0.000000 0.978607 0.205725
vn 0.642323 0.418104 0.642323
vn 0.000000 0.622791 0.782373
vn -0.553209 0.622791 0.553209
vn -0.313852 0.896084 0.313852
vn 0.000000 0.418104 0.908383
vn -0.642323 0.418104 0.642323
vn 0.000000 1.000000 0.000000
vn -0.782373 0.622791 0.000000
vn -0.908383 0.418104 0.000000
vn -0.145451 0.978607 0.145451
usemtl None
s 1
f 2/1/1 1/2/2 5/3/3
f 6/4/4 5/3/3 10/5/5
f 5/3/3 4/6/6 9/7/7
f 7/8/8 6/4/4 11/9/9
f 10/5/5 9/7/7 14/10/10
f 9/7/7 8/11/11 13/12/12
f 11/9/9 10/5/5 15/13/13
f 15/13/13 14/10/10 18/14/14
f 14/10/10 13/12/12 17/15/15
f 16/16/16 15/13/13 19/17/17
f 19/17/17 18/14/14 22/18/18
f 18/14/14 17/15/15 21/19/19
f 20/20/20 19/17/17 23/21/21
f 23/21/21 22/18/18 26/22/22
f 22/18/18 21/19/19 25/23/23
f 24/24/24 23/21/21 27/25/25
f 27/25/25 26/22/22 31/26/26
f 26/22/22 25/23/23 30/27/27
f 28/28/28 27/25/25 32/29/29
f 1/2/2 12/30/30 4/6/6
f 33/31/31 2/1/1 6/4/4
f 3/32/32 33/31/31 7/8/8
f 4/6/6 12/30/30 8/11/11
f 8/11/11 12/30/30 13/12/12
f 13/12/12 12/30/30 17/15/15
f 17/15/15 12/30/30 21/19/19
f 21/19/19 12/30/30 25/23/23
f 25/23/23 12/30/30 29/33/33
f 31/26/26 30/27/27 33/31/31
f 30/27/27 29/33/33 2/1/1
f 32/29/29 31/26/26 3/32/32
f 29/33/33 12/30/30 1/2/2
f 1/2/2 4/6/6 5/3/3
f 5/3/3 9/7/7 10/5/5
f 4/6/6 8/11/11 9/7/7
f 6/4/4 10/5/5 11/9/9
f 15/13/13 10/5/5 14/10/10
f 14/10/10 9/7/7 13/12/12
f 16/16/16 11/9/9 15/13/13
f 19/17/17 15/13/13 18/14/14
f 18/14/14 14/10/10 17/15/15
f 20/20/20 16/16/16 19/17/17
f 23/21/21 19/17/17 22/18/18
f 22/18/18 18/14/14 21/19/19
f 24/24/24 20/20/20 23/21/21
f 27/25/25 23/21/21 26/22/22
f 26/22/22 22/18/18 25/23/23
f 28/28/28 24/24/24 27/25/25
f 26/22/22 30/27/27 31/26/26
f 25/23/23 29/33/33 30/27/27
f 27/25/25 31/26/26 32/29/29
f 2/1/1 5/3/3 6/4/4
f 33/31/31 6/4/4 7/8/8
f 30/27/27 2/1/1 33/31/31
f 29/33/33 1/2/2 2/1/1
f 31/26/26 33/31/31 3/32/32
