# Blender v2.67 (sub 0) OBJ File: 'table_scene5.blend'
# www.blender.org
mtllib slingshot_left.mtl
o Plane.055
v 0.002623 0.000005 0.565508
v 0.829759 0.000005 1.005635
v -0.000111 0.000005 -0.000285
v 0.829759 0.000005 0.834439
v 0.002623 0.252459 0.565508
v 0.829759 0.252459 1.005635
v -0.000111 0.252459 -0.000285
v 0.829759 0.252459 0.834439
vt 0.589976 0.124012
vt 0.456499 0.261083
vt 0.357357 0.593020
vt 0.083545 0.124012
vt 0.229684 0.875988
vt 0.296930 0.603034
vt 0.478720 0.816297
vt 0.293646 0.309667
vn 0.709166 0.000000 -0.705042
vn -0.999988 0.000000 0.004832
vn -0.469747 0.000000 0.882801
vn 1.000000 0.000000 0.000000
vn 0.000000 1.000000 0.000000
usemtl None
s off
f 3/1/1 7/2/1 8/3/1
f 3/1/2 1/4/2 7/2/2
f 2/5/3 6/6/3 1/4/3
f 4/7/4 8/3/4 6/6/4
f 6/6/5 8/3/5 5/8/5
f 4/7/1 3/1/1 8/3/1
f 1/4/2 5/8/2 7/2/2
f 6/6/3 5/8/3 1/4/3
f 2/5/4 4/7/4 6/6/4
f 8/3/5 7/2/5 5/8/5
