# Blender v2.67 (sub 0) OBJ File: 'table_scene5.blend'
# www.blender.org
mtllib paddle_right.mtl
o Plane.000
v 0.000943 0.391048 -0.209568
v 0.208649 0.391048 -0.001675
v 0.001809 0.391048 0.206032
v -1.444282 0.391048 0.001770
v 0.208649 0.000174 -0.001675
v 0.000943 0.000174 -0.209568
v -1.444107 0.391048 0.084416
v 0.001809 0.000174 0.206032
v -1.444282 0.000174 0.001770
v -1.444107 0.000174 0.084416
vt 0.500000 0.746752
vt 0.734675 0.576250
vt 0.645037 0.300373
vt 0.265325 0.576251
vt 0.253248 0.253248
vt 0.746752 0.253248
vt 0.746752 0.746752
vt 0.253248 0.746752
vt 0.354963 0.300374
vn -0.000000 1.000000 -0.000000
vn 0.000000 -1.000000 0.000000
vn 0.707426 -0.000000 -0.706788
vn 0.708585 0.000000 0.705626
vn -0.999998 0.000000 0.002115
vn -0.083814 0.000000 0.996481
vn -0.144693 -0.000000 -0.989477
usemtl None
s off
f 2/1/1 1/2/1 4/3/1
f 5/1/2 8/2/2 6/4/2
f 1/5/3 2/6/3 5/7/3
f 2/5/4 3/6/4 8/7/4
f 7/5/5 4/6/5 10/8/5
f 3/5/6 7/6/6 8/8/6
f 4/5/7 1/6/7 9/8/7
f 3/4/1 2/1/1 4/3/1
f 7/9/1 3/4/1 4/3/1
f 8/2/2 10/3/2 9/9/2
f 6/4/2 8/2/2 9/9/2
f 6/8/3 1/5/3 5/7/3
f 5/8/4 2/5/4 8/7/4
f 4/6/5 9/7/5 10/8/5
f 7/6/6 10/7/6 8/8/6
f 1/6/7 6/7/7 9/8/7
