# Blender v2.67 (sub 0) OBJ File: 'table_scene6.blend'
# www.blender.org
mtllib shooter_end.mtl
o Cylinder.003_Cylinder.006
v -0.000016 0.352368 0.001398
v -0.000016 0.352368 0.207756
v 0.246115 0.234850 0.001398
v 0.246115 0.234850 0.207756
v 0.246115 -0.000184 0.001398
v 0.246115 -0.000184 0.207756
v -0.000016 -0.117701 0.001398
v -0.000016 -0.117701 0.207756
v -0.246148 -0.000184 0.001398
v -0.246148 -0.000184 0.207756
v -0.246148 0.234850 0.001398
v -0.246148 0.234850 0.207756
vt 0.235067 0.235067
vt 0.764933 0.235067
vt 0.764933 0.764933
vt 0.235067 0.764933
vt 0.500000 0.764933
vt 0.729438 0.632466
vt 0.270562 0.632466
vt 0.270562 0.367534
vt 0.729438 0.367534
vt 0.500000 0.235067
vn 0.430865 0.902416 0.000000
vn 1.000000 -0.000000 0.000000
vn 0.430865 -0.902416 0.000000
vn -0.430865 -0.902416 0.000000
vn -0.000000 0.000000 1.000000
vn -0.430865 0.902416 0.000000
vn -1.000000 -0.000000 0.000000
vn 0.000000 -0.000000 -1.000000
usemtl None
s off
f 1/1/1 2/2/1 4/3/1
f 3/1/2 4/2/2 6/3/2
f 5/1/3 6/2/3 8/3/3
f 7/1/4 8/2/4 9/4/4
f 4/5/5 2/6/5 6/7/5
f 11/1/6 12/2/6 1/4/6
f 9/1/7 10/2/7 11/4/7
f 11/7/8 1/5/8 9/8/8
f 3/4/1 1/1/1 4/3/1
f 5/4/2 3/1/2 6/3/2
f 7/4/3 5/1/3 8/3/3
f 8/2/4 10/3/4 9/4/4
f 2/6/5 12/9/5 6/7/5
f 12/9/5 10/10/5 8/8/5
f 6/7/5 12/9/5 8/8/5
f 12/2/6 2/3/6 1/4/6
f 10/2/7 12/3/7 11/4/7
f 9/8/8 1/5/8 7/10/8
f 1/5/8 3/6/8 7/10/8
f 3/6/8 5/9/8 7/10/8
