# Blender v2.76 (sub 0) OBJ File: 'table_scene5.blend'
# www.blender.org
mtllib slingshot1_right.mtl
o Plane.056
v 0.827150 0.000005 -0.268786
v 0.000015 0.000005 0.171341
v 0.823813 0.000005 -0.834579
v 0.000015 0.000005 0.000144
v 0.827150 0.252455 -0.268786
v 0.000015 0.252455 0.171341
v 0.823813 0.252455 -0.834579
v 0.000015 0.252455 0.000144
vt 0.126959 0.623072
vt 0.322983 0.126959
vt 0.381871 0.202961
vt 0.598928 0.799923
vt 0.533642 0.869843
vt 0.381871 0.356694
vt 0.735984 0.704177
vt 0.598928 0.704177
vt 0.598928 0.605941
vt 0.735984 0.605941
vt 0.598928 0.126959
vt 0.873041 0.701379
vt 0.735985 0.701379
vt 0.735984 0.376710
vt 0.873040 0.376710
vt 0.735984 0.126959
vt 0.322983 0.873041
vt 0.873040 0.126959
vn 0.000000 -1.000000 0.000000
vn 0.000000 1.000000 0.000000
vn -1.000000 0.000000 0.000000
vn -0.711700 0.000000 -0.702400
vn 1.000000 0.000000 -0.005900
vn 0.469700 0.000000 0.882800
usemtl None
s off
f 1/1/1 2/2/1 4/3/1
f 8/4/2 6/5/2 5/6/2
f 2/7/3 6/8/3 8/9/3
f 4/10/4 8/9/4 7/11/4
f 3/12/5 7/13/5 5/14/5
f 1/15/6 5/14/6 6/16/6
f 3/17/1 1/1/1 4/3/1
f 7/11/2 8/4/2 5/6/2
f 4/10/3 2/7/3 8/9/3
f 3/16/4 4/10/4 7/11/4
f 1/15/5 3/12/5 5/14/5
f 2/18/6 1/15/6 6/16/6
