# Blender v2.76 (sub 0) OBJ File: 'table_scene6.blend'
# www.blender.org
mtllib spinner.mtl
o Plane.054
v -0.492511 -0.019208 -0.001944
v 0.501455 -0.019208 -0.001944
v -0.492511 0.023071 -0.001944
v 0.501455 0.023071 -0.001944
v -0.326397 -0.237594 -0.001437
v 0.332405 -0.237594 -0.002511
v -0.326397 0.251693 -0.001437
v 0.332405 0.251693 -0.002511
vt 0.784682 0.474174
vt 0.784682 0.499157
vt 0.264962 0.497085
vt 0.719844 0.164115
vt 0.719844 0.795456
vt 0.311303 0.795456
vt 0.264962 0.472102
vt 0.311303 0.164115
vn 0.000000 0.000000 1.000000
vn 0.001600 0.000000 1.000000
usemtl None
s off
f 2/1/1 4/2/1 3/3/1
f 6/4/2 8/5/2 7/6/2
f 1/7/1 2/1/1 3/3/1
f 5/8/2 6/4/2 7/6/2
