# Blender v2.76 (sub 0) OBJ File: 'table_scene5.blend'
# www.blender.org
mtllib bumper.mtl
o Sphere
v -0.280131 0.396421 0.000989
v -0.517295 0.327939 0.000989
v -0.731409 0.104551 0.000989
v -0.198193 0.396421 -0.196827
v -0.365893 0.327939 -0.364527
v -0.477947 0.225448 -0.476581
v -0.517295 0.104551 -0.515929
v -0.000377 0.396421 -0.278765
v -0.000377 0.327939 -0.515929
v -0.000377 0.225448 -0.674397
v -0.000377 0.104551 -0.730043
v -0.000377 0.420469 0.000989
v 0.197439 0.396421 -0.196827
v 0.365139 0.327939 -0.364527
v 0.477193 0.225448 -0.476581
v 0.516541 0.104551 -0.515929
v 0.279377 0.396421 0.000989
v 0.516541 0.327939 0.000989
v 0.675009 0.225448 0.000989
v 0.730655 0.104551 0.000989
v 0.197439 0.396421 0.198805
v 0.365139 0.327939 0.366505
v 0.477193 0.225448 0.478559
v 0.516541 0.104551 0.517907
v -0.000377 0.396421 0.280743
v -0.000377 0.327939 0.517907
v -0.000377 0.225448 0.676375
v -0.000377 0.104551 0.732022
v -0.198193 0.396421 0.198805
v -0.365893 0.327939 0.366505
v -0.477947 0.225448 0.478559
v -0.517295 0.104551 0.517907
v -0.675763 0.225448 0.000989
vt 0.616285 0.932831
vt 0.623190 0.928102
vt 0.638884 0.928012
vt 0.646004 0.932716
vt 0.666728 0.926781
vt 0.680688 0.928445
vt 0.649754 0.924857
vt 0.651651 0.936643
vt 0.691914 0.929849
vt 0.666316 0.918501
vt 0.680411 0.916928
vt 0.649431 0.920485
vt 0.645010 0.912728
vt 0.650984 0.908839
vt 0.638105 0.917457
vt 0.656025 0.905712
vt 0.615290 0.912843
vt 0.609643 0.908916
vt 0.622410 0.917547
vt 0.594566 0.918778
vt 0.580607 0.917114
vt 0.611541 0.920702
vt 0.605270 0.905712
vt 0.594978 0.927058
vt 0.580883 0.928631
vt 0.611864 0.925074
vt 0.569381 0.929849
vt 0.630647 0.922780
vt 0.610311 0.936720
vt 0.656025 0.939847
vt 0.605270 0.939847
vt 0.691914 0.915710
vt 0.569381 0.915710
vn -0.443800 0.896100 0.000000
vn -0.205700 0.978600 0.000000
vn -0.145500 0.978600 -0.145500
vn -0.313900 0.896100 -0.313900
vn 0.000000 0.896100 -0.443800
vn 0.000000 0.622800 -0.782400
vn 0.000000 0.978600 -0.205700
vn -0.553200 0.622800 -0.553200
vn 0.000000 0.418100 -0.908400
vn 0.313900 0.896100 -0.313900
vn 0.553200 0.622800 -0.553200
vn 0.145500 0.978600 -0.145500
vn 0.443800 0.896100 0.000000
vn 0.782400 0.622800 0.000000
vn 0.205700 0.978600 0.000000
vn 0.908400 0.418100 0.000000
vn 0.313900 0.896100 0.313900
vn 0.553200 0.622800 0.553200
vn 0.145500 0.978600 0.145500
vn 0.000000 0.896100 0.443800
vn 0.000000 0.622800 0.782400
vn 0.000000 0.978600 0.205700
vn 0.642300 0.418100 0.642300
vn -0.313900 0.896100 0.313800
vn -0.553200 0.622800 0.553200
vn -0.145500 0.978600 0.145500
vn -0.642300 0.418100 0.642300
vn 0.000000 1.000000 0.000000
vn -0.782400 0.622800 0.000000
vn -0.642300 0.418100 -0.642300
vn -0.908400 0.418100 0.000000
vn 0.642300 0.418100 -0.642300
vn 0.000000 0.418100 0.908400
usemtl None
s 1
f 2/1/1 1/2/2 4/3/3
f 5/4/4 9/5/5 10/6/6
f 5/4/4 4/3/3 8/7/7
f 6/8/8 10/6/6 11/9/9
f 9/5/5 14/10/10 15/11/11
f 9/5/5 8/7/7 13/12/12
f 11/9/9 10/6/6 15/11/11
f 14/10/10 18/13/13 19/14/14
f 13/12/12 17/15/15 18/13/13
f 15/11/11 19/14/14 20/16/16
f 18/13/13 22/17/17 23/18/18
f 17/15/15 21/19/19 22/17/17
f 20/16/16 19/14/14 23/18/18
f 22/17/17 26/20/20 27/21/21
f 21/19/19 25/22/22 26/20/20
f 24/23/23 23/18/18 27/21/21
f 26/20/20 30/24/24 31/25/25
f 26/20/20 25/22/22 29/26/26
f 27/21/21 31/25/25 32/27/27
f 1/2/2 12/28/28 4/3/3
f 33/29/29 2/1/1 5/4/4
f 33/29/29 6/8/8 7/30/30
f 4/3/3 12/28/28 8/7/7
f 8/7/7 12/28/28 13/12/12
f 13/12/12 12/28/28 17/15/15
f 17/15/15 12/28/28 21/19/19
f 21/19/19 12/28/28 25/22/22
f 25/22/22 12/28/28 29/26/26
f 31/25/25 30/24/24 2/1/1
f 29/26/26 1/2/2 2/1/1
f 31/25/25 33/29/29 3/31/31
f 29/26/26 12/28/28 1/2/2
f 5/4/4 2/1/1 4/3/3
f 6/8/8 5/4/4 10/6/6
f 9/5/5 5/4/4 8/7/7
f 7/30/30 6/8/8 11/9/9
f 10/6/6 9/5/5 15/11/11
f 14/10/10 9/5/5 13/12/12
f 16/32/32 11/9/9 15/11/11
f 15/11/11 14/10/10 19/14/14
f 14/10/10 13/12/12 18/13/13
f 16/32/32 15/11/11 20/16/16
f 19/14/14 18/13/13 23/18/18
f 18/13/13 17/15/15 22/17/17
f 24/23/23 20/16/16 23/18/18
f 23/18/18 22/17/17 27/21/21
f 22/17/17 21/19/19 26/20/20
f 28/33/33 24/23/23 27/21/21
f 27/21/21 26/20/20 31/25/25
f 30/24/24 26/20/20 29/26/26
f 28/33/33 27/21/21 32/27/27
f 6/8/8 33/29/29 5/4/4
f 3/31/31 33/29/29 7/30/30
f 33/29/29 31/25/25 2/1/1
f 30/24/24 29/26/26 2/1/1
f 32/27/27 31/25/25 3/31/31
