# Blender v2.76 (sub 0) OBJ File: 'ol_presents.blend'
# www.blender.org
mtllib ol_presents.mtl
o Text.009_Mesh.007
v 0.644797 -7.430743 -0.170991
v 0.644797 -7.435374 -0.045517
v 0.510928 -7.435374 -0.045517
v 0.644797 -7.255632 -0.164528
v 0.510928 -7.260263 -0.039054
v 0.644797 -7.260263 -0.039054
v 0.602562 -8.847434 -0.210599
v 0.764411 -8.847434 -0.210599
v 0.602562 -8.853033 -0.058899
v 0.764411 -8.635723 -0.202785
v 0.602562 -8.641322 -0.051085
v 0.602562 -8.635723 -0.202785
v 0.575402 -10.344381 -0.226917
v 0.575402 -10.350185 -0.069660
v 0.069746 -10.350185 -0.069660
v 0.575402 -10.102147 -0.060505
v 0.069746 -10.102147 -0.060505
v 0.575402 -10.096343 -0.217762
v 0.194716 -7.514720 -0.164024
v 0.421680 -7.514720 -0.164024
v 0.049292 -7.518995 -0.048213
v 0.194716 -7.332054 -0.157283
v 0.421680 -7.332054 -0.157283
v 0.049292 -7.336328 -0.041471
v 0.247930 -9.775122 -0.661661
v 0.247930 -9.791521 -0.217340
v 0.065655 -9.796878 -0.072182
v 0.247930 -9.546165 -0.653211
v 0.065655 -9.567923 -0.063731
v 0.247930 -9.562565 -0.208890
v 0.062342 -9.337978 -0.639159
v 0.241061 -9.337978 -0.639159
v 0.062342 -9.359310 -0.061183
v 0.062342 -9.113490 -0.630874
v 0.062342 -9.134822 -0.052897
v 0.241061 -9.113490 -0.630874
v -0.058481 -10.648626 -0.250692
v -0.058481 -10.655264 -0.070837
v -0.250370 -10.655264 -0.070837
v -0.058481 -10.397622 -0.241428
v -0.250370 -10.404260 -0.061573
v -0.058481 -10.404260 -0.061573
v -0.156795 -6.666887 -0.152692
v -0.039114 -6.666887 -0.152692
v -0.156795 -6.670958 -0.042390
v -0.156795 -6.512952 -0.147010
v -0.156795 -6.517023 -0.036709
v -0.039114 -6.512952 -0.147010
v -0.576690 -6.112944 -0.334694
v -0.484535 -6.109993 -0.414650
v -0.472474 -6.114325 -0.297274
v -0.576690 -5.966598 -0.329293
v -0.484535 -5.963647 -0.409249
v -0.472474 -5.967979 -0.291872
v -0.777375 -8.261286 -0.455074
v -0.808312 -8.268518 -0.259109
v -0.635048 -8.263172 -0.403968
v -0.777375 -8.061422 -0.447697
v -0.808312 -8.068655 -0.251732
v -0.635048 -8.063309 -0.396592
v -0.854455 -8.725087 -0.274983
v -0.677235 -8.726811 -0.228253
v -0.675345 -8.719560 -0.424731
v -0.677235 -8.520204 -0.220627
v -0.675345 -8.512952 -0.417105
v -0.854455 -8.518479 -0.267358
v -0.665409 -7.566551 -0.088192
v -0.740135 -7.561061 -0.236930
v -0.585855 -7.562563 -0.196248
v -0.665409 -7.386687 -0.081554
v -0.740135 -7.381197 -0.230291
v -0.585855 -7.382699 -0.189610
v -0.628472 -9.613262 -0.047103
v -0.840132 -9.610906 -0.110944
v -0.740199 -9.605896 -0.246680
v -0.628472 -9.387325 -0.038764
v -0.840132 -9.384969 -0.102606
v -0.740199 -9.379959 -0.238341
v -0.498262 -7.636667 -0.036559
v -0.587120 -7.630809 -0.195285
v -0.482145 -7.632777 -0.141959
v -0.587120 -7.451119 -0.188653
v -0.482145 -7.453088 -0.135327
v -0.498262 -7.456978 -0.029927
v -0.366568 -7.970854 -0.076807
v -0.524149 -7.972339 -0.036581
v -0.506223 -7.968012 -0.153815
v -0.366568 -7.770990 -0.069430
v -0.524149 -7.772475 -0.029205
v -0.506223 -7.768148 -0.146438
v -0.307943 -6.682613 -0.063398
v -0.418849 -6.680357 -0.124554
v -0.349215 -6.677774 -0.194521
v -0.418849 -6.521636 -0.118696
v -0.349215 -6.519053 -0.188663
v -0.307943 -6.523893 -0.057540
v -0.407754 -10.960517 -0.206106
v -0.501130 -10.964099 -0.109059
v -0.566603 -10.956422 -0.317065
v -0.407754 -10.708730 -0.196813
v -0.501130 -10.712312 -0.099766
v -0.566603 -10.704635 -0.307773
v -0.280907 -8.771039 -0.352532
v -0.324997 -8.777889 -0.166917
v -0.458061 -8.774459 -0.259864
v -0.280907 -8.560124 -0.344748
v -0.324997 -8.566976 -0.159132
v -0.458061 -8.563545 -0.252079
v -0.324993 -10.150281 -0.408037
v -0.521933 -10.154083 -0.305018
v -0.540362 -10.146905 -0.499517
v -0.521933 -9.919611 -0.296365
v -0.540362 -9.912433 -0.490863
v -0.324993 -9.915809 -0.399383
v -0.308808 -7.614463 -0.464156
v -0.244039 -7.620356 -0.304487
v -0.414621 -7.617682 -0.376943
v -0.308808 -7.428751 -0.457302
v -0.244039 -7.434644 -0.297633
v -0.414621 -7.431970 -0.370088
v -0.553653 -10.422590 -0.701773
v -0.424330 -10.425310 -0.628083
v -0.554493 -10.429270 -0.520799
v -0.553653 -10.194141 -0.693342
v -0.424330 -10.196861 -0.619651
v -0.554493 -10.200821 -0.512367
v -0.502187 -9.289516 -0.613704
v -0.502885 -9.295067 -0.463336
v -0.586344 -9.293263 -0.512198
v -0.502885 -9.105253 -0.456331
v -0.586344 -9.103450 -0.505193
v -0.502187 -9.099703 -0.606698
v -0.536508 -6.854125 -0.465691
v -0.365417 -6.854225 -0.462987
v -0.442203 -6.857453 -0.375529
v -0.536508 -6.686588 -0.459508
v -0.365417 -6.686688 -0.456803
v -0.442203 -6.689916 -0.369346
v -0.892585 -11.430509 -0.775014
v -0.743417 -11.435482 -0.640267
v -0.871312 -11.438149 -0.567988
v -0.743417 -11.177361 -0.630740
v -0.871312 -11.180029 -0.558461
v -0.892585 -11.172388 -0.765488
vt 0.253832 0.815069
vt 0.294907 0.859079
vt 0.253832 0.859079
vt 0.698307 0.463635
vt 0.698307 0.507645
vt 0.657232 0.507645
vt 0.571380 0.722649
vt 0.625424 0.722649
vt 0.625424 0.780257
vt 0.473064 0.781436
vt 0.473064 0.839044
vt 0.431733 0.839044
vt 0.495248 0.840850
vt 0.495248 0.783241
vt 0.534193 0.783242
vt 0.294907 0.815069
vt 0.258686 0.780928
vt 0.294907 0.742118
vt 0.804286 0.134801
vt 0.804286 0.207752
vt 0.768064 0.168942
vt 0.635294 0.515280
vt 0.635294 0.584929
vt 0.571380 0.584929
vt 0.712397 0.395139
vt 0.758756 0.395139
vt 0.758756 0.464788
vt 0.740097 0.658782
vt 0.740097 0.728431
vt 0.689463 0.728431
vt 0.480833 0.134801
vt 0.480833 0.308902
vt 0.431679 0.293529
vt 0.529987 0.308902
vt 0.480833 0.150174
vt 0.529987 0.134801
vt 0.290950 0.481177
vt 0.209752 0.481177
vt 0.209752 0.337321
vt 0.696848 0.209129
vt 0.696848 0.290729
vt 0.648038 0.290729
vt 0.358191 0.312306
vt 0.439388 0.312306
vt 0.439389 0.469196
vt 0.199806 0.465934
vt 0.177743 0.408963
vt 0.199806 0.337718
vt 0.291612 0.481177
vt 0.291612 0.609394
vt 0.269549 0.538148
vt 0.269549 0.481177
vt 0.269549 0.584122
vt 0.209752 0.584122
vt 0.630585 0.781960
vt 0.630585 0.721866
vt 0.683032 0.721866
vt 0.597434 0.395139
vt 0.657232 0.395139
vt 0.657232 0.466496
vt 0.134801 0.540692
vt 0.134801 0.337718
vt 0.177743 0.477375
vt 0.538190 0.515280
vt 0.495248 0.451963
vt 0.538190 0.312306
vt 0.209752 0.337718
vt 0.134801 0.199126
vt 0.209752 0.199126
vt 0.134801 0.134801
vt 0.284703 0.337321
vt 0.209752 0.134801
vt 0.358191 0.532772
vt 0.302331 0.351104
vt 0.358191 0.333758
vt 0.495248 0.312306
vt 0.495248 0.511320
vt 0.439389 0.493973
vt 0.358191 0.134801
vt 0.431679 0.134801
vt 0.431679 0.312306
vt 0.630585 0.658781
vt 0.630585 0.584929
vt 0.686498 0.584929
vt 0.284703 0.333758
vt 0.689463 0.721866
vt 0.554126 0.661804
vt 0.554126 0.724888
vt 0.495248 0.724888
vt 0.190625 0.540692
vt 0.190625 0.623267
vt 0.538190 0.477714
vt 0.538190 0.395139
vt 0.358191 0.551771
vt 0.358191 0.469196
vt 0.435658 0.469196
vt 0.856411 0.356844
vt 0.830074 0.332020
vt 0.856411 0.303802
vt 0.734415 0.468957
vt 0.734415 0.507645
vt 0.358191 0.865199
vt 0.358191 0.814558
vt 0.395007 0.814558
vt 0.677058 0.832602
vt 0.630585 0.832602
vt 0.826310 0.835752
vt 0.826310 0.785110
vt 0.860018 0.785110
vt 0.767079 0.468957
vt 0.767079 0.507774
vt 0.734415 0.492029
vt 0.538190 0.497332
vt 0.573017 0.477714
vt 0.573017 0.514120
vt 0.633660 0.514641
vt 0.597434 0.514641
vt 0.597434 0.466496
vt 0.395007 0.862702
vt 0.430249 0.814558
vt 0.169978 0.815204
vt 0.169978 0.863349
vt 0.134801 0.863349
vt 0.755896 0.134801
vt 0.768064 0.198911
vt 0.718590 0.198911
vt 0.777966 0.507793
vt 0.777966 0.582061
vt 0.735258 0.556961
vt 0.358191 0.681356
vt 0.295213 0.681356
vt 0.295213 0.615605
vt 0.431733 0.596236
vt 0.495248 0.596236
vt 0.495248 0.661987
vt 0.134801 0.763347
vt 0.134801 0.697596
vt 0.184218 0.697596
vt 0.629499 0.658009
vt 0.629499 0.722649
vt 0.571380 0.707837
vt 0.258686 0.657202
vt 0.258686 0.733976
vt 0.209752 0.699155
vt 0.358191 0.687711
vt 0.358191 0.619741
vt 0.417964 0.619741
vt 0.663425 0.134801
vt 0.663425 0.202771
vt 0.602245 0.202771
vt 0.424959 0.619741
vt 0.204901 0.825330
vt 0.245744 0.789092
vt 0.245744 0.841549
vt 0.785537 0.839661
vt 0.741622 0.839661
vt 0.760805 0.790876
vt 0.741622 0.728431
vt 0.741622 0.787602
vt 0.689463 0.787602
vt 0.829791 0.209129
vt 0.829791 0.268301
vt 0.787980 0.268301
vt 0.797428 0.395139
vt 0.836597 0.395139
vt 0.836597 0.454311
vt 0.694389 0.134801
vt 0.718590 0.203296
vt 0.663425 0.203296
vt 0.681432 0.395139
vt 0.712397 0.463635
vt 0.657232 0.463635
vt 0.134801 0.623267
vt 0.188851 0.623267
vt 0.653908 0.312306
vt 0.707108 0.312306
vt 0.707108 0.386635
vt 0.602245 0.209129
vt 0.529988 0.209129
vt 0.473064 0.809110
vt 0.494511 0.781436
vt 0.494511 0.841270
vt 0.409250 0.719870
vt 0.430697 0.687711
vt 0.430697 0.747544
vt 0.339825 0.809857
vt 0.295213 0.809857
vt 0.295213 0.750743
vt 0.804286 0.193915
vt 0.838676 0.134801
vt 0.788366 0.844224
vt 0.788366 0.785110
vt 0.854588 0.507793
vt 0.854588 0.561262
vt 0.818856 0.546007
vt 0.331647 0.809857
vt 0.331647 0.862295
vt 0.295213 0.848822
vt 0.823636 0.724533
vt 0.785707 0.724533
vt 0.785707 0.658782
vt 0.409250 0.753462
vt 0.358191 0.753462
vt 0.743682 0.274881
vt 0.743682 0.209129
vt 0.787980 0.209129
vt 0.829791 0.294066
vt 0.860850 0.261345
vt 0.860850 0.302989
vt 0.865199 0.440359
vt 0.836597 0.425271
vt 0.865199 0.395139
vt 0.838288 0.506527
vt 0.797428 0.506527
vt 0.797428 0.454311
vt 0.823636 0.658782
vt 0.860042 0.658782
vt 0.860042 0.710998
vt 0.829791 0.261345
vt 0.859339 0.209129
vt 0.797428 0.466874
vt 0.758756 0.416383
vt 0.791013 0.366746
vt 0.746940 0.366746
vt 0.756774 0.303802
vt 0.358191 0.615605
vt 0.302302 0.615605
vt 0.598503 0.312306
vt 0.707108 0.303802
vt 0.746940 0.303802
vt 0.461853 0.723083
vt 0.484843 0.781436
vt 0.431733 0.781436
vt 0.518238 0.724888
vt 0.548358 0.783241
vt 0.686498 0.654316
vt 0.737639 0.584929
vt 0.344308 0.750743
vt 0.557444 0.592417
vt 0.557444 0.661804
vt 0.495248 0.661804
vt 0.571380 0.633702
vt 0.630585 0.658009
vt 0.209752 0.608429
vt 0.268957 0.584122
vt 0.268957 0.657202
vt 0.687748 0.507793
vt 0.687748 0.584929
vt 0.571380 0.592417
vt 0.495248 0.592417
vt 0.495248 0.515280
vt 0.590760 0.286266
vt 0.590760 0.209129
vt 0.648038 0.209130
vt 0.614185 0.836937
vt 0.571380 0.793778
vt 0.614185 0.780257
vt 0.831171 0.728431
vt 0.831171 0.785110
vt 0.788366 0.771589
vt 0.431733 0.723083
vt 0.431733 0.661987
vt 0.492240 0.661987
vt 0.791013 0.364897
vt 0.791013 0.303802
vt 0.830074 0.303802
vt 0.401014 0.753462
vt 0.401014 0.814558
vt 0.828123 0.644467
vt 0.785705 0.620422
vt 0.828123 0.584929
vt 0.134801 0.815204
vt 0.163908 0.763347
vt 0.183502 0.815204
vt 0.743682 0.284285
vt 0.653908 0.387461
vt 0.687748 0.582948
vt 0.735258 0.507793
vt 0.862400 0.728431
vt 0.862400 0.771796
vt 0.831171 0.733558
vt 0.201207 0.858570
vt 0.169978 0.853443
vt 0.201207 0.815204
vt 0.741622 0.790876
vt 0.788366 0.728431
vt 0.818856 0.507793
vt 0.818856 0.570238
vt 0.208798 0.528379
vt 0.177743 0.528379
vt 0.177743 0.465934
vt 0.857147 0.584929
vt 0.857147 0.641184
vt 0.828123 0.616398
vt 0.430038 0.809716
vt 0.401014 0.778248
vt 0.430038 0.753462
vt 0.569323 0.783242
vt 0.569323 0.838358
vt 0.534193 0.838358
vt 0.728337 0.842719
vt 0.689463 0.842719
vt 0.258686 0.789092
vt 0.204901 0.789092
vt 0.204901 0.733976
vt 0.740097 0.709641
vt 0.785707 0.724887
vt 0.785706 0.647656
vt 0.737639 0.647656
vt 0.758401 0.584929
vt 0.590760 0.294046
vt 0.529987 0.294046
vt 0.294419 0.657202
vt 0.294419 0.742118
vt 0.435688 0.596236
vt 0.435688 0.511320
vt 0.571380 0.780257
vt 0.534193 0.840850
vt 0.571380 0.515281
vt 0.712397 0.464788
vt 0.689463 0.658782
vt 0.290949 0.337321
vt 0.683032 0.781960
vt 0.284703 0.134801
vt 0.686498 0.658782
vt 0.597434 0.477714
vt 0.435658 0.551771
vt 0.395007 0.865199
vt 0.677058 0.781960
vt 0.860018 0.835752
vt 0.633660 0.466496
vt 0.430249 0.862703
vt 0.184218 0.763347
vt 0.417964 0.687711
vt 0.602245 0.134801
vt 0.424959 0.551771
vt 0.188851 0.697596
vt 0.653908 0.386635
vt 0.339825 0.750743
vt 0.838676 0.193915
vt 0.826310 0.844224
vt 0.409250 0.687711
vt 0.787980 0.274881
vt 0.838288 0.454311
vt 0.823636 0.710998
vt 0.859339 0.261345
vt 0.302302 0.532772
vt 0.598503 0.395139
vt 0.746940 0.386635
vt 0.737639 0.654316
vt 0.344308 0.681356
vt 0.635294 0.507793
vt 0.648038 0.286266
vt 0.492240 0.723083
vt 0.830074 0.364897
vt 0.696848 0.284285
vt 0.598503 0.387461
vt 0.735258 0.582948
vt 0.788366 0.790876
vt 0.777966 0.570238
vt 0.208798 0.465934
vt 0.728337 0.787602
vt 0.258686 0.742118
vn -0.000000 -0.999300 -0.036900
vn 0.000000 0.999300 0.036900
vn -0.684100 0.026900 -0.728900
vn 0.000000 -0.036900 0.999300
vn 1.000000 -0.000000 0.000000
vn 0.684100 -0.026900 0.728900
vn -1.000000 0.000000 0.000000
vn 0.000000 0.036900 -0.999300
vn -0.297200 0.035200 -0.954200
vn 0.297200 -0.035200 0.954200
vn -0.623200 0.028800 -0.781500
vn 0.623200 -0.028800 0.781500
vn -0.955400 0.010900 -0.295000
vn 0.955400 -0.010900 0.295000
vn -0.338100 -0.034700 0.940500
vn -0.655600 0.027900 -0.754600
vn 0.994800 0.003800 -0.102100
vn 0.641700 -0.028300 0.766500
vn -0.987800 0.005700 -0.155700
vn 0.338100 0.034700 -0.940500
vn -0.255100 -0.035700 0.966200
vn 1.000000 -0.000400 0.009600
vn -0.641700 0.028300 -0.766500
vn 0.255100 0.035700 -0.966200
vn 0.805500 -0.021900 0.592200
vn -0.893700 -0.016500 0.448400
vn 0.872700 0.018000 -0.487900
vn -0.805500 0.021900 -0.592200
vn -0.289000 -0.035300 0.956700
vn -0.872700 -0.018000 0.487900
vn 0.988500 -0.005600 0.151000
vn 0.453100 0.032900 -0.890800
vn -0.988500 0.005600 -0.151000
vn 0.483100 0.032300 -0.875000
vn 0.247500 -0.035700 0.968200
vn -0.483100 -0.032300 0.875000
vn 0.953900 0.011100 -0.299900
vn -0.709000 0.026000 -0.704700
vn -0.953900 -0.011100 0.299900
vn 0.572900 0.030200 -0.819100
vn 0.720800 -0.025600 0.692600
vn -0.572900 -0.030200 0.819100
vn -0.463800 0.032700 -0.885400
vn 0.973000 -0.008500 0.230800
vn 0.463800 -0.032700 0.885400
vn 0.391200 0.033900 -0.919700
vn -0.995500 -0.003500 0.094200
vn -0.391200 -0.033900 0.919700
vn -0.636300 0.028500 -0.770900
vn 0.926800 0.013900 -0.375400
vn 0.636300 -0.028500 0.770900
vn -1.000000 0.000200 -0.004600
vn 0.495300 0.032000 -0.868100
vn 1.000000 -0.000200 0.004600
vn -0.770000 0.023500 -0.637600
vn -0.505500 -0.031800 0.862200
vn 0.751700 -0.024300 0.659100
vn -0.691300 -0.026700 0.722100
vn 0.015800 0.036900 -0.999200
vn -0.994800 -0.003800 0.102100
vn 0.492300 -0.032100 0.869900
vn 0.670600 0.027400 -0.741300
vn -0.297100 0.035200 -0.954200
vn 0.953900 0.011100 -0.299800
usemtl None
s off
f 3/1/1 1/2/1 2/3/1
f 5/4/2 6/5/2 4/6/2
f 1/7/3 3/8/3 5/9/3
f 2/10/4 6/11/4 5/12/4
f 1/13/5 4/14/5 6/15/5
f 9/16/1 7/17/1 8/18/1
f 11/19/2 10/20/2 12/21/2
f 8/22/6 10/23/6 11/24/6
f 7/25/7 9/26/7 11/27/7
f 7/28/8 12/29/8 10/30/8
f 15/31/1 13/32/1 14/33/1
f 17/34/2 16/35/2 18/36/2
f 15/37/9 17/38/9 18/39/9
f 13/40/5 18/41/5 16/42/5
f 14/43/4 16/44/4 17/45/4
f 21/46/1 19/47/1 20/48/1
f 24/49/2 23/50/2 22/51/2
f 21/52/10 20/53/10 23/54/10
f 21/55/11 24/56/11 22/57/11
f 19/58/8 22/59/8 23/60/8
f 27/61/1 25/62/1 26/63/1
f 29/64/2 30/65/2 28/66/2
f 25/67/5 28/62/5 30/68/5
f 26/69/12 30/68/12 29/70/12
f 27/71/13 29/39/13 28/72/13
f 33/73/1 31/74/1 32/75/1
f 35/76/2 36/77/2 34/78/2
f 33/79/7 35/80/7 34/81/7
f 31/82/8 34/83/8 36/84/8
f 33/79/14 32/75/14 36/85/14
f 39/82/1 37/86/1 38/56/1
f 41/87/2 42/88/2 40/89/2
f 38/61/5 37/90/5 40/91/5
f 38/92/4 42/93/4 41/58/4
f 39/94/3 41/95/3 40/96/3
f 45/97/1 43/98/1 44/99/1
f 47/5/2 48/100/2 46/101/2
f 43/102/8 46/103/8 48/104/8
f 45/105/6 44/106/6 48/55/6
f 45/107/7 47/108/7 46/109/7
f 50/110/1 51/111/1 49/112/1
f 53/113/2 52/114/2 54/115/2
f 49/116/15 51/117/15 54/118/15
f 49/119/16 52/104/16 53/120/16
f 50/121/17 53/122/17 54/123/17
f 56/124/1 55/125/1 57/126/1
f 59/127/2 60/128/2 58/129/2
f 56/130/18 57/131/18 60/132/18
f 55/133/19 56/134/19 59/135/19
f 55/136/20 58/137/20 60/138/20
f 63/139/1 62/140/1 61/141/1
f 65/142/2 66/143/2 64/144/2
f 62/145/21 64/146/21 66/147/21
f 63/148/22 65/149/22 64/150/22
f 63/151/23 61/146/23 66/94/23
f 67/152/1 68/153/1 69/154/1
f 70/155/2 72/156/2 71/157/2
f 68/158/24 71/159/24 72/160/24
f 69/161/25 72/162/25 70/163/25
f 68/164/26 67/165/26 70/166/26
f 73/167/1 74/168/1 75/169/1
f 76/170/2 78/171/2 77/172/2
f 75/137/27 78/173/27 76/174/27
f 75/175/28 74/176/28 77/177/28
f 74/178/29 73/179/29 76/36/29
f 81/180/1 79/181/1 80/182/1
f 83/183/2 82/184/2 84/185/2
f 80/186/30 79/187/30 84/188/30
f 81/189/31 83/19/31 84/190/31
f 80/191/32 82/192/32 83/108/32
f 85/193/1 86/194/1 87/195/1
f 88/196/2 90/197/2 89/198/2
f 87/199/33 86/200/33 89/201/33
f 85/202/34 87/203/34 90/145/34
f 85/204/35 88/205/35 89/206/35
f 93/207/1 91/208/1 92/209/1
f 95/210/2 94/211/2 96/212/2
f 92/213/36 91/214/36 96/215/36
f 91/216/37 93/217/37 95/218/37
f 92/219/38 94/161/38 95/220/38
f 98/164/1 99/221/1 97/222/1
f 101/223/2 100/224/2 102/225/2
f 98/73/39 101/226/39 102/227/39
f 99/93/40 102/66/40 100/228/40
f 97/177/41 100/229/41 101/230/41
f 103/231/1 104/232/1 105/233/1
f 106/234/2 108/235/2 107/14/2
f 104/236/42 107/84/42 108/237/42
f 103/238/43 105/188/43 108/131/43
f 103/239/44 106/240/44 107/241/44
f 111/242/1 109/83/1 110/243/1
f 113/244/2 112/245/2 114/246/2
f 109/247/45 114/248/45 112/23/45
f 109/249/46 111/250/46 113/251/46
f 110/252/47 112/253/47 113/254/47
f 116/255/1 117/256/1 115/257/1
f 119/258/2 118/259/2 120/260/2
f 116/261/48 119/262/48 120/263/48
f 117/264/49 120/265/49 118/266/49
f 116/203/50 115/267/50 118/268/50
f 121/269/1 122/270/1 123/271/1
f 124/272/2 126/273/2 125/274/2
f 123/40/51 122/205/51 125/275/51
f 121/228/52 123/175/52 126/276/52
f 121/277/53 124/247/53 125/278/53
f 129/279/1 127/280/1 128/281/1
f 131/282/2 130/283/2 132/284/2
f 127/285/54 132/158/54 130/286/54
f 127/127/55 129/287/55 131/288/55
f 129/289/56 128/290/56 130/291/56
f 133/292/1 134/293/1 135/294/1
f 136/295/2 138/296/2 137/297/2
f 134/298/57 137/299/57 138/300/57
f 133/301/58 135/302/58 138/160/58
f 134/303/59 133/304/59 136/305/59
f 141/306/1 139/201/1 140/307/1
f 143/308/2 142/309/2 144/310/2
f 141/253/60 143/311/60 144/312/60
f 141/142/61 140/313/61 142/314/61
f 140/134/62 139/315/62 144/316/62
f 4/317/3 1/7/3 5/9/3
f 3/233/4 2/10/4 5/12/4
f 2/318/5 1/13/5 6/15/5
f 9/319/6 8/22/6 11/24/6
f 12/320/7 7/25/7 11/27/7
f 8/321/8 7/28/8 10/30/8
f 13/322/63 15/37/63 18/39/63
f 14/254/5 13/40/5 16/42/5
f 15/95/4 14/43/4 17/45/4
f 24/38/10 21/52/10 23/54/10
f 19/323/11 21/55/11 22/57/11
f 20/118/8 19/58/8 23/60/8
f 26/69/5 25/67/5 30/68/5
f 27/72/12 26/69/12 29/70/12
f 25/324/13 27/71/13 28/72/13
f 31/43/7 33/79/7 34/81/7
f 32/325/8 31/82/8 36/84/8
f 35/324/14 33/79/14 36/85/14
f 42/173/5 38/61/5 40/91/5
f 39/326/4 38/92/4 41/58/4
f 37/327/3 39/94/3 40/96/3
f 44/328/8 43/102/8 48/104/8
f 47/329/6 45/105/6 48/55/6
f 43/330/7 45/107/7 46/109/7
f 52/331/15 49/116/15 54/118/15
f 50/332/16 49/119/16 53/120/16
f 51/272/17 50/121/17 54/123/17
f 59/226/18 56/130/18 60/132/18
f 58/262/19 55/133/19 59/135/19
f 57/333/20 55/136/20 60/138/20
f 61/334/21 62/145/21 66/147/21
f 62/335/22 63/148/22 64/150/22
f 65/336/23 63/151/23 66/94/23
f 69/30/24 68/158/24 72/160/24
f 67/206/25 69/161/25 70/163/25
f 71/215/26 68/164/26 70/166/26
f 73/337/27 75/137/27 76/174/27
f 78/338/28 75/175/28 77/177/28
f 77/335/29 74/178/29 76/36/29
f 82/339/30 80/186/30 84/188/30
f 79/340/31 81/189/31 84/190/31
f 81/341/32 80/191/32 83/108/32
f 90/216/33 87/199/33 89/201/33
f 88/342/34 85/202/34 90/145/34
f 86/343/35 85/204/35 89/206/35
f 94/344/36 92/213/36 96/215/36
f 96/345/64 91/216/64 95/218/64
f 93/346/38 92/219/38 95/220/38
f 99/347/39 98/73/39 102/227/39
f 97/348/40 99/93/40 100/228/40
f 98/349/41 97/177/41 101/230/41
f 105/350/42 104/236/42 108/237/42
f 106/351/43 103/238/43 108/131/43
f 104/250/44 103/239/44 107/241/44
f 110/352/45 109/247/45 112/23/45
f 114/319/46 109/249/46 113/251/46
f 111/353/47 110/252/47 113/254/47
f 117/354/48 116/261/48 120/263/48
f 115/355/49 117/264/49 118/266/49
f 119/103/50 116/203/50 118/268/50
f 126/356/51 123/40/51 125/275/51
f 124/357/52 121/228/52 126/276/52
f 122/358/53 121/277/53 125/278/53
f 128/359/54 127/285/54 130/286/54
f 132/360/55 127/127/55 131/288/55
f 131/361/56 129/289/56 130/291/56
f 135/15/57 134/298/57 138/300/57
f 136/362/58 133/301/58 138/160/58
f 137/143/59 134/303/59 136/305/59
f 139/179/60 141/253/60 144/312/60
f 143/363/61 141/142/61 142/314/61
f 142/77/62 140/134/62 144/316/62
