# Blender v2.67 (sub 0) OBJ File: 'table_scene6.blend'
# www.blender.org
mtllib shooter_spring.mtl
o Cylinder_Cylinder.001
v 0.052933 0.020372 -2.546700
v 0.052933 0.020372 0.001388
v 0.125604 0.093680 -2.546700
v 0.125604 0.093680 0.001388
v 0.125159 0.198390 -2.546700
v 0.125159 0.198390 0.001388
v 0.051857 0.273164 -2.546700
v 0.051857 0.273165 0.001388
v -0.051362 0.274201 -2.546700
v -0.051362 0.274202 0.001388
v -0.124034 0.200894 -2.546700
v -0.124034 0.200894 0.001388
v -0.123588 0.096184 -2.546700
v -0.123588 0.096184 0.001388
v -0.050286 0.021409 -2.546700
v -0.050286 0.021409 0.001388
vt -0.008730 0.500000
vt 1.003824 0.500000
vt -0.008731 0.624986
vt 1.003823 0.624986
vt -0.008731 0.749971
vt 1.003823 0.749972
vt -0.008732 0.874957
vt 1.003822 0.874957
vt -0.008733 0.999942
vt -0.008730 0.000057
vt 1.003826 0.000057
vt 1.003826 0.125043
vt -0.008730 0.125043
vt 1.003825 0.250029
vt -0.008730 0.375014
vt 1.003825 0.375015
vt -0.008730 0.250029
vt 1.003821 0.999943
vn -0.710181 0.704019 -0.000000
vn -0.999991 -0.004255 -0.000000
vn -0.714104 -0.700040 0.000000
vn -0.010047 -0.999949 0.000000
vn 0.710181 -0.704019 0.000000
vn 0.999991 0.004255 0.000000
vn 0.010047 0.999950 -0.000000
vn 0.714104 0.700040 -0.000000
vn -0.010047 -0.999950 0.000000
vn 0.010047 0.999949 -0.000000
usemtl None
s off
f 1/1/1 2/2/1 3/3/1
f 3/3/2 4/4/2 5/5/2
f 5/5/3 6/6/3 7/7/3
f 7/7/4 8/8/4 9/9/4
f 9/10/5 10/11/5 12/12/5
f 11/13/6 12/12/6 14/14/6
f 15/15/7 16/16/7 2/2/7
f 13/17/8 14/14/8 16/16/8
f 2/2/1 4/4/1 3/3/1
f 4/4/2 6/6/2 5/5/2
f 6/6/3 8/8/3 7/7/3
f 8/8/9 10/18/9 9/9/9
f 11/13/5 9/10/5 12/12/5
f 13/17/6 11/13/6 14/14/6
f 1/1/10 15/15/10 2/2/10
f 15/15/8 13/17/8 16/16/8
