# Blender v2.76 (sub 0) OBJ File: 'table_scene6.blend'
# www.blender.org
mtllib slot_wheel.mtl
o Plane.052
v -0.451179 -0.522587 -0.016946
v -0.451179 0.254306 -0.465486
v 0.449655 -0.522587 -0.016946
v 0.449655 0.254306 -0.465486
v -0.450736 0.272603 0.433977
v -0.450765 -0.525333 -0.015152
v 0.452330 0.272730 0.433695
v 0.452302 -0.525206 -0.015435
v -0.451138 0.255688 -0.465975
v -0.451067 0.271492 0.430964
v 0.449696 0.255265 -0.466039
v 0.449766 0.271069 0.430901
vt 0.921181 0.183744
vt 0.921181 0.843408
vt 0.702220 0.843408
vt 0.273076 0.172205
vt 0.273076 0.831867
vt 0.058025 0.831867
vt 0.597190 0.172333
vt 0.597190 0.831994
vt 0.378229 0.831994
vt 0.702220 0.183744
vt 0.058025 0.172205
vt 0.378229 0.172333
vn 0.000000 -0.500000 -0.866000
vn 0.000300 -0.490500 0.871400
vn 0.000500 0.999800 -0.017600
usemtl None
s off
f 4/1/1 3/2/1 1/3/1
f 8/4/2 7/5/2 5/6/2
f 12/7/3 11/8/3 9/9/3
f 2/10/1 4/1/1 1/3/1
f 6/11/2 8/4/2 5/6/2
f 10/12/3 12/7/3 9/9/3
